<svg width="32" height="32" viewBox="0 0 32 32" fill="none" xmlns="http://www.w3.org/2000/svg">
<mask id="mask0_1_1792" style="mask-type:luminance" maskUnits="userSpaceOnUse" x="0" y="0" width="32" height="32">
<path fill-rule="evenodd" clip-rule="evenodd" d="M32 0V32H0V0H32Z" fill="white"/>
</mask>
<g mask="url(#mask0_1_1792)">
<path fill-rule="evenodd" clip-rule="evenodd" d="M18 14C17.1716 14 16.4645 13.7071 15.8787 13.1213C15.2929 12.5355 15 11.8284 15 11V2.25001C15 2.18096 14.9756 2.12205 14.9268 2.07322C14.878 2.02442 14.819 2 14.75 2H9C7.89542 2 6.95263 2.39052 6.17157 3.17158C5.39052 3.95261 5 4.89542 5 6V26C5 27.1046 5.39052 28.0474 6.17157 28.8284C6.95263 29.6095 7.89542 30 9 30H23C24.1046 30 25.0474 29.6095 25.8284 28.8284C26.6095 28.0474 27 27.1046 27 26V14.25C27 14.181 26.9756 14.122 26.9268 14.0732C26.878 14.0244 26.819 14 26.75 14H18ZM11 24C10.7239 24 10.4882 23.9024 10.2929 23.7071C10.0976 23.5118 10 23.2761 10 23C10 22.7239 10.0976 22.4882 10.2929 22.2929C10.4882 22.0976 10.7239 22 11 22H21C21.2761 22 21.5118 22.0976 21.7071 22.2929C21.9024 22.4882 22 22.7239 22 23C22 23.2761 21.9024 23.5118 21.7071 23.7071C21.5118 23.9024 21.2761 24 21 24H11ZM11 19C10.7239 19 10.4882 18.9024 10.2929 18.7071C10.0976 18.5118 10 18.2761 10 18C10 17.7239 10.0976 17.4882 10.2929 17.2929C10.4882 17.0976 10.7239 17 11 17H21C21.2761 17 21.5118 17.0976 21.7071 17.2929C21.9024 17.4882 22 17.7239 22 18C22 18.2761 21.9024 18.5118 21.7071 18.7071C21.5118 18.9024 21.2761 19 21 19H11Z" fill="#010081"/>
<path fill-rule="evenodd" clip-rule="evenodd" d="M17.2131 2.79862C17.1953 2.78086 17.174 2.76953 17.1492 2.76465C17.1245 2.75976 17.1005 2.76214 17.0772 2.77176C17.054 2.78139 17.0353 2.79666 17.0212 2.81758C17.0072 2.83849 17.0001 2.86155 17 2.88675V10.9999C17 11.276 17.0976 11.5117 17.2929 11.707C17.4882 11.9022 17.7239 11.9999 18 11.9999H26.1131C26.1383 11.9998 26.1614 11.9927 26.1823 11.9786C26.2032 11.9646 26.2185 11.9459 26.2281 11.9226C26.2378 11.8994 26.2401 11.8754 26.2352 11.8506C26.2303 11.8259 26.219 11.8046 26.2013 11.7868L17.2131 2.79862Z" fill="#010081"/>
</g>
</svg>
