<svg width="32" height="32" viewBox="0 0 32 32" fill="none" xmlns="http://www.w3.org/2000/svg">
<mask id="mask0_1_1807" style="mask-type:luminance" maskUnits="userSpaceOnUse" x="0" y="0" width="32" height="32">
<path fill-rule="evenodd" clip-rule="evenodd" d="M32 0V32H0V0H32Z" fill="white"/>
</mask>
<g mask="url(#mask0_1_1807)">
<path fill-rule="evenodd" clip-rule="evenodd" d="M3 16C3 23.1794 8.82062 29 16 29C23.1794 29 29 23.1794 29 16C29 8.82062 23.1794 3 16 3C8.82062 3 3 8.82062 3 16ZM16 18C15.7239 18 15.4882 17.9024 15.2929 17.7071C15.0976 17.5118 15 17.2761 15 17V8C15 7.72386 15.0976 7.48816 15.2929 7.2929C15.4882 7.09764 15.7239 7 16 7C16.2761 7 16.5118 7.09764 16.7071 7.2929C16.9024 7.48816 17 7.72386 17 8V16H22C22.2761 16 22.5118 16.0976 22.7071 16.2929C22.9024 16.4881 23 16.7239 23 17C23 17.2761 22.9024 17.5118 22.7071 17.7071C22.5118 17.9024 22.2761 18 22 18H16Z" fill="#010081"/>
</g>
</svg>
