<svg width="32" height="32" viewBox="0 0 32 32" fill="none" xmlns="http://www.w3.org/2000/svg">
<mask id="mask0_1_1770" style="mask-type:luminance" maskUnits="userSpaceOnUse" x="0" y="0" width="32" height="32">
<path fill-rule="evenodd" clip-rule="evenodd" d="M32 0V32H0V0H32Z" fill="white"/>
</mask>
<g mask="url(#mask0_1_1770)">
<path fill-rule="evenodd" clip-rule="evenodd" d="M29.6907 6.3564C29.5374 6.18442 29.3473 6.07811 29.1205 6.03752C23.7436 5.07377 21.4811 4.32 16.6255 2.13501C16.1405 1.95439 15.8398 1.95751 15.3755 2.13501C10.5198 4.32251 8.25735 5.07251 2.88047 6.03752C2.65363 6.07811 2.46355 6.18442 2.31022 6.3564C2.15686 6.5284 2.07298 6.72939 2.05859 6.95938C1.81796 10.7781 2.32985 14.3344 3.5811 17.5313C4.09266 18.8347 4.72392 20.0773 5.47488 21.2591C6.22588 22.4409 7.08272 23.5401 8.04546 24.5569C10.8373 27.5213 13.933 29.2519 15.5292 29.9069C15.6806 29.9686 15.838 29.9995 16.0014 29.9995C16.1648 29.9995 16.3222 29.9686 16.4736 29.9069C18.1611 29.2244 21.1417 27.5431 23.9555 24.5556C24.9181 23.5391 25.775 22.44 26.5259 21.2584C27.2769 20.0768 27.9082 18.8345 28.4198 17.5313C29.6711 14.335 30.183 10.7781 29.9423 6.95938C29.928 6.72939 29.8441 6.5284 29.6907 6.3564Z" fill="#010081"/>
</g>
</svg>
