<svg width="32" height="32" viewBox="0 0 32 32" fill="none" xmlns="http://www.w3.org/2000/svg">
<mask id="mask0_1_1781" style="mask-type:luminance" maskUnits="userSpaceOnUse" x="0" y="0" width="32" height="32">
<path fill-rule="evenodd" clip-rule="evenodd" d="M32 0V32H0V0H32Z" fill="white"/>
</mask>
<g mask="url(#mask0_1_1781)">
<path fill-rule="evenodd" clip-rule="evenodd" d="M26.4348 9.09159C25.9387 9.81908 25.8514 10.5927 26.1728 11.4125L20.9121 16.6731C20.6189 16.5577 20.3148 16.5 19.9996 16.5C19.6845 16.5 19.3804 16.5577 19.0871 16.6731L15.3265 12.9125C15.6487 12.0925 15.5616 11.3184 15.0655 10.5904C14.5693 9.86237 13.8807 9.49837 12.9996 9.49837C12.1186 9.49837 11.43 9.86237 10.9338 10.5904C10.4376 11.3184 10.3506 12.0925 10.6728 12.9125L4.41213 19.1731C3.65305 18.8753 2.92302 18.9347 2.22205 19.3513C1.52105 19.7678 1.1199 20.3807 1.01855 21.1897C0.91721 21.9988 1.15484 22.6916 1.73141 23.2682C2.30798 23.8448 3.0008 24.0824 3.80988 23.9811C4.61898 23.8797 5.23178 23.4786 5.64835 22.7776C6.0649 22.0766 6.12427 21.3466 5.82652 20.5875L12.0871 14.3269C12.3804 14.4423 12.6845 14.5 12.9996 14.5C13.3147 14.5 13.6189 14.4423 13.9121 14.3269L17.6727 18.0875C17.3506 18.9075 17.4376 19.6816 17.9338 20.4096C18.43 21.1376 19.1186 21.5016 19.9996 21.5016C20.8807 21.5016 21.5693 21.1376 22.0655 20.4096C22.5616 19.6816 22.6487 18.9075 22.3265 18.0875L27.5871 12.8269C28.3166 13.1135 29.0244 13.0672 29.7104 12.6882C30.3964 12.3091 30.8122 11.7345 30.9578 10.9644C31.1034 10.1943 30.926 9.50754 30.4257 8.90421C29.9254 8.30089 29.2834 7.99949 28.4996 8C27.6191 8.00022 26.9308 8.36408 26.4348 9.09159Z" fill="#010081"/>
</g>
</svg>
