<svg width="40" height="40" viewBox="0 0 40 40" fill="none" xmlns="http://www.w3.org/2000/svg">
<mask id="mask0_1_2568" style="mask-type:luminance" maskUnits="userSpaceOnUse" x="0" y="0" width="40" height="40">
<path fill-rule="evenodd" clip-rule="evenodd" d="M40 0V40H0V0H40Z" fill="white"/>
</mask>
<g mask="url(#mask0_1_2568)">
<path fill-rule="evenodd" clip-rule="evenodd" d="M20 3.75C11.0258 3.75 3.75 11.0258 3.75 20C3.75 28.9742 11.0258 36.25 20 36.25C28.9742 36.25 36.25 28.9742 36.25 20C36.25 11.0258 28.9742 3.75 20 3.75V3.75Z" stroke="#080484" stroke-width="2.5"/>
<path fill-rule="evenodd" clip-rule="evenodd" d="M32.1148 14.6789C31.5343 14.2742 31.1773 13.6859 30.4484 13.507C29.8117 13.3507 29.1593 13.5132 28.5304 13.6218C27.8156 13.7453 26.9679 13.8007 26.4257 14.3422C25.9015 14.8632 25.6242 15.5625 25.0664 16.0867C23.9875 17.1023 23.532 18.2109 24.2304 19.6468C24.9023 21.0273 26.3078 21.7765 27.8242 21.6781C29.314 21.5789 30.8617 20.7148 30.8187 22.8796C30.8031 23.6453 30.9632 24.1765 31.1984 24.8882C31.4164 25.5445 31.4015 26.1804 31.4515 26.8578C31.5437 28.1234 31.7765 29.5421 32.4046 30.6601L33.5765 29.007C33.7211 28.8023 34.0234 28.5156 34.0953 28.2742C34.2226 27.8468 33.9718 27.1125 33.9429 26.6336C33.914 26.1546 33.9281 25.6695 33.8546 25.1906C33.7515 24.5195 33.3546 23.8906 33.3 23.2273C33.1992 21.9921 33.425 21.0062 32.4734 19.9734C31.5546 18.9773 30.2078 18.7382 28.9211 18.9406C28.2726 19.0422 25.6625 19.4593 26.7101 17.9773C26.9172 17.6859 27.2789 17.4468 27.5117 17.1695C27.714 16.9281 27.8898 16.4843 28.1273 16.2961C28.3648 16.1078 29.4554 15.8914 29.7679 15.9875C30.0804 16.0835 30.4062 16.5343 30.6773 16.7343C30.9277 16.923 31.197 17.0791 31.4851 17.2028C31.7733 17.3264 32.072 17.414 32.3812 17.4656C33.4484 17.6218 35.6796 17.0015 35.6625 15.6328C35.6593 14.9765 35.05 14.0625 34.8093 13.4484C33.5546 13.4562 33.6781 15.7711 32.1148 14.6789ZM18.3742 21.4211C17.6359 20.8742 16.9789 20.0297 16.0093 19.9609C15.5625 19.9289 15.1882 20.0257 14.7453 19.9109C14.339 19.8062 14.0203 19.5875 13.5875 19.6445C12.7789 19.7507 12.2687 20.6148 11.4 20.4976C10.5757 20.3867 9.72652 19.4226 9.53902 18.6375C9.2984 17.6281 10.0968 17.3007 10.9523 17.2109C11.3093 17.1734 11.7101 17.1328 12.0531 17.2632C12.5046 17.4312 12.7179 17.8734 13.1234 18.0968C13.8835 18.5132 14.0375 17.8476 13.9211 17.1726C13.7468 16.1617 13.5437 15.7492 14.4453 15.0539C15.0703 14.5742 15.6047 14.2273 15.5046 13.3656C15.4453 12.8593 15.1679 12.6304 15.4265 12.1265C15.6226 11.7429 16.1609 11.3968 16.5117 11.1679C17.4171 10.5773 20.3906 10.6211 19.1757 8.96795C18.8187 8.48276 18.1601 7.61558 17.5351 7.49684C16.7539 7.34918 16.407 8.22105 15.8625 8.60543C15.3 9.00309 14.2046 9.45466 13.6414 8.83982C12.8836 8.01245 14.1437 7.74058 14.4226 7.16324C14.7015 6.5859 13.7765 5.49449 13.2812 5.21793L10.9523 7.82964C10.8847 8.27168 10.9075 8.70896 11.0207 9.14155C11.134 9.57411 11.3284 9.9665 11.6039 10.3187C12.0671 10.9148 12.8047 11.1062 12.8382 11.9203C12.8711 12.7015 12.7492 13.1015 12.2382 13.6507C12.0171 13.8851 11.8609 14.2179 11.6359 14.4375C11.3601 14.7054 11.4625 14.6234 11.032 14.6969C10.2226 14.8336 9.53356 15.0445 8.75153 15.2601C7.4484 15.6203 7.32808 13.4914 6.73433 12.6562L4.78121 14.2336C4.76012 14.4921 5.10153 14.9679 5.19449 15.2492C5.72808 16.8562 6.80464 18.0992 7.49996 19.6367C8.232 21.2648 10.1976 20.8132 11.0656 22.2398C11.8359 23.5055 11.0132 25.1078 11.5898 26.4328C12.0086 27.3945 12.996 27.6046 13.6773 28.3078C14.3734 29.0179 14.3585 29.9898 14.4648 30.914C14.5247 31.4576 14.6032 31.9984 14.7003 32.5365C14.7975 33.0747 14.913 33.6088 15.0468 34.139C15.1414 34.5054 15.2281 34.9898 15.4789 35.2921C15.6507 35.5 16.2406 35.6789 16.0023 35.7476C16.3351 35.8023 16.9281 36.1133 17.2054 35.8851C17.5711 35.5851 17.4734 34.6617 17.5367 34.2445C17.7265 33.0023 18.3484 31.7875 19.1875 30.8578C20.0164 29.9406 21.1523 29.3195 21.8523 28.2797C22.5343 27.2656 22.7398 25.8976 22.457 24.7109C22.0406 22.9578 19.6586 22.3718 18.3742 21.4211ZM17.6648 28.8291C17.4828 29.0095 17.0953 29.6345 16.8671 29.4994C16.7039 29.4025 16.6484 28.5916 16.5882 28.4056C16.4331 27.9375 16.2108 27.5037 15.9213 27.1044C15.6318 26.7051 15.2888 26.3589 14.8921 26.0658C14.6476 25.8806 14.0414 25.64 13.9015 25.3861C13.7453 25.1103 13.8859 24.4595 13.8914 24.1595C13.9 23.722 13.7007 22.9947 13.8086 22.597C13.9336 22.1384 13.6929 22.415 14.1031 22.3244C14.3195 22.2759 15.2132 22.433 15.4828 22.4892C15.9109 22.5783 16.1468 22.8447 16.4843 23.1142C17.3718 23.8259 18.3492 24.3767 19.3437 24.922C20.114 25.3486 20.3406 25.8884 19.8484 26.7673C19.3796 27.6041 18.3359 28.1642 17.6648 28.8291ZM15.6812 6.06734C16.2039 6.1025 16.6968 5.81969 17.1531 6.17516C17.6593 6.56578 18.0242 7.06031 18.6961 7.18219C19.3461 7.30016 20.0343 6.92047 20.1953 6.25563C20.3515 5.62203 20.0148 4.93297 19.9945 4.29703C19.9945 4.20875 20.0421 3.81656 19.9812 3.75016C19.9359 3.70016 19.5578 3.75641 19.5 3.75797C19.0765 3.77047 18.6541 3.79964 18.2328 3.84547C17.4647 3.9286 16.7065 4.06603 15.9582 4.25777C15.2098 4.4495 14.479 4.69358 13.7656 4.99C13.9554 5.12125 14.1937 5.1736 14.4101 5.24156C14.7804 5.60328 15.1289 6.03141 15.6812 6.06734ZM28.966 8.56699C28.7863 7.92402 28.48 7.22637 27.7347 7.57324C27.2605 7.79355 26.5886 8.35449 26.5331 8.91074C26.4699 9.54199 27.4011 9.63105 27.8433 9.63105C28.5066 9.63105 29.18 9.33418 28.966 8.56699ZM29.5066 12.6238C29.9058 12.1707 30.141 11.3839 30.8589 11.3847C31.017 11.3844 31.1692 11.4141 31.3155 11.4737C31.4619 11.5334 31.5915 11.6185 31.7043 11.7293C32.0011 12.0363 31.9425 12.3246 32.0058 12.7089C32.1472 13.5722 33.073 12.7582 33.3144 12.4238C33.4707 12.2058 33.6824 11.8824 33.6113 11.5988C33.5457 11.3339 33.2363 11.0519 33.0988 10.8089C32.6972 10.1058 32.3668 9.28785 31.7652 8.71988C31.1863 8.17301 30.4746 8.23629 29.9254 8.80426C29.4753 9.27301 28.9527 9.6441 28.6449 10.2144C28.4277 10.6152 28.1832 10.8066 27.7433 10.9105C27.5011 10.9675 27.2246 10.9886 27.0214 11.1511C26.4558 11.5964 26.7777 12.666 27.3136 12.9879C27.991 13.3933 28.9957 13.2027 29.5066 12.6238Z" fill="#080484"/>
</g>
</svg>
