<svg width="40" height="40" viewBox="0 0 40 40" fill="none" xmlns="http://www.w3.org/2000/svg">
<mask id="mask0_1_2584" style="mask-type:luminance" maskUnits="userSpaceOnUse" x="0" y="0" width="40" height="40">
<path fill-rule="evenodd" clip-rule="evenodd" d="M40 0V40H0V0H40Z" fill="white"/>
</mask>
<g mask="url(#mask0_1_2584)">
<path d="M6.98223 9.48223L6.09835 8.59834L6.09834 8.59835L6.98223 9.48223ZM10.5178 9.48223L11.4017 8.59835L11.4016 8.59834L10.5178 9.48223ZM11.9822 4.48223L11.0984 3.59834L11.0983 3.59835L11.9822 4.48223ZM15.5178 4.48223L16.4017 3.59835L16.4016 3.59834L15.5178 4.48223ZM21.9822 5.73224L22.8661 6.61614L22.8661 6.61612L21.9822 5.73224ZM25.5178 5.73224L24.6339 6.61612L24.6339 6.61614L25.5178 5.73224ZM16.9822 1.98224L17.8661 2.86613L17.8661 2.86611L16.9822 1.98224ZM20.5178 1.98224L19.6339 2.86611L19.6339 2.86613L20.5178 1.98224ZM6.25 25H7.5V11.25H6.25H5V25H6.25ZM6.25 11.25H7.5C7.5 10.8912 7.61238 10.6198 7.86612 10.3661L6.98223 9.48223L6.09834 8.59835C5.37578 9.32092 5 10.2281 5 11.25H6.25ZM6.98223 9.48223L7.86611 10.3661C8.11985 10.1124 8.39116 10 8.75 10V8.75V7.5C7.72812 7.5 6.82093 7.87577 6.09835 8.59834L6.98223 9.48223ZM8.75 8.75V10C9.10884 10 9.38015 10.1124 9.63389 10.3661L10.5178 9.48223L11.4016 8.59834C10.6791 7.87577 9.77188 7.5 8.75 7.5V8.75ZM10.5178 9.48223L9.63388 10.3661C9.88762 10.6198 10 10.8912 10 11.25H11.25H12.5C12.5 10.2281 12.1242 9.32092 11.4017 8.59835L10.5178 9.48223ZM11.25 11.25H10V20H11.25H12.5V11.25H11.25ZM11.25 20H12.5V6.25H11.25H10V20H11.25ZM11.25 6.25H12.5C12.5 5.89117 12.6124 5.61985 12.8661 5.36611L11.9822 4.48223L11.0983 3.59835C10.3758 4.32093 10 5.22813 10 6.25H11.25ZM11.9822 4.48223L12.8661 5.36612C13.1199 5.11238 13.3912 5 13.75 5V3.75V2.5C12.7281 2.5 11.8209 2.87578 11.0984 3.59834L11.9822 4.48223ZM13.75 3.75V5C14.1088 5 14.3801 5.11238 14.6339 5.36612L15.5178 4.48223L16.4016 3.59834C15.6791 2.87578 14.7719 2.5 13.75 2.5V3.75ZM15.5178 4.48223L14.6339 5.36611C14.8876 5.61985 15 5.89117 15 6.25H16.25H17.5C17.5 5.22813 17.1242 4.32093 16.4017 3.59835L15.5178 4.48223ZM16.25 6.25H15V18.75H16.25H17.5V6.25H16.25ZM21.25 18.8281H22.5V7.5H21.25H20V18.8281H21.25ZM21.25 7.5H22.5C22.5 7.14116 22.6124 6.86985 22.8661 6.61614L21.9822 5.73224L21.0984 4.84834C20.3758 5.57091 20 6.47812 20 7.5H21.25ZM21.9822 5.73224L22.8661 6.61612C23.1199 6.36238 23.3912 6.25 23.75 6.25V5V3.75C22.7281 3.75 21.8209 4.12578 21.0983 4.84836L21.9822 5.73224ZM23.75 5V6.25C24.1088 6.25 24.3801 6.36238 24.6339 6.61612L25.5178 5.73224L26.4017 4.84836C25.6791 4.12578 24.7719 3.75 23.75 3.75V5ZM25.5178 5.73224L24.6339 6.61614C24.8876 6.86985 25 7.14116 25 7.5H26.25H27.5C27.5 6.47812 27.1242 5.57091 26.4016 4.84834L25.5178 5.73224ZM26.25 7.5H25V25H26.25H27.5V7.5H26.25ZM16.25 18.75H17.5V3.75H16.25H15V18.75H16.25ZM16.25 3.75H17.5C17.5 3.39116 17.6124 3.11985 17.8661 2.86613L16.9822 1.98224L16.0984 1.09834C15.3758 1.82091 15 2.72812 15 3.75H16.25ZM16.9822 1.98224L17.8661 2.86611C18.1199 2.61238 18.3912 2.5 18.75 2.5V1.25V0C17.7281 0 16.8209 0.375765 16.0983 1.09836L16.9822 1.98224ZM18.75 1.25V2.5C19.1088 2.5 19.3801 2.61238 19.6339 2.86611L20.5178 1.98224L21.4017 1.09836C20.6791 0.375765 19.7719 0 18.75 0V1.25ZM20.5178 1.98224L19.6339 2.86613C19.8876 3.11985 20 3.39116 20 3.75H21.25H22.5C22.5 2.72812 22.1242 1.82091 21.4016 1.09834L20.5178 1.98224ZM21.25 3.75H20V18.75H21.25H22.5V3.75H21.25Z" fill="#080484"/>
<path d="M6.25 25C6.25 34.1719 11.25 38.75 18.125 38.75C25 38.75 27.7898 35.6563 29.375 31.875L33.493 20.625C34.0133 19.2148 33.7774 17.907 32.5656 17.2188C31.3531 16.5297 29.7602 16.8844 29.1039 18.1312L26.25 25" stroke="#080484" stroke-width="2.5" stroke-linecap="round" stroke-linejoin="round"/>
</g>
</svg>
