<svg width="48" height="48" viewBox="0 0 48 48" fill="none" xmlns="http://www.w3.org/2000/svg">
<mask id="mask0_1_2314" style="mask-type:luminance" maskUnits="userSpaceOnUse" x="0" y="0" width="48" height="48">
<path fill-rule="evenodd" clip-rule="evenodd" d="M48 0V48H0V0H48Z" fill="white"/>
</mask>
<g mask="url(#mask0_1_2314)">
<path d="M14.4467 37.3047L13.435 38.4121L13.4355 38.4126L14.4467 37.3047ZM30.177 16.0703L29.3631 17.3303L29.3632 17.3303L30.177 16.0703ZM5.24985 6.11406L6.34124 5.08505C6.18099 4.91509 5.87803 4.64761 5.42029 4.5425C4.88246 4.41901 4.38307 4.57507 4.02542 4.84907C3.72126 5.08208 3.55315 5.36939 3.46402 5.55063C3.36659 5.74875 3.30036 5.95186 3.25275 6.13201C3.07235 6.81458 3.00312 7.78901 3.00102 8.87268C2.99671 11.1029 3.28116 14.3032 3.93686 17.8282C5.23211 24.7914 8.06492 33.5064 13.435 38.4121L14.4467 37.3047L15.4584 36.1972C10.8535 31.9905 8.15976 24.1258 6.88627 17.2796C6.2576 13.8999 5.99713 10.8881 6.00102 8.87849C6.00302 7.84224 6.07618 7.18982 6.15316 6.89856C6.16989 6.83525 6.17518 6.83572 6.15611 6.87451C6.14533 6.89642 6.0624 7.06771 5.84988 7.23053C5.58386 7.43432 5.18257 7.56599 4.74893 7.46642C4.39538 7.38524 4.20269 7.18999 4.15847 7.14308L5.24985 6.11406ZM14.4467 37.3047L13.4355 38.4126C17.3845 42.0169 22.4111 43.6247 26.9906 43.4479C31.547 43.272 35.8628 41.304 38.0903 37.509L36.7967 36.7497L35.5031 35.9904C33.9337 38.6641 30.721 40.3017 26.8748 40.4502C23.0517 40.5978 18.8018 39.2487 15.4579 36.1968L14.4467 37.3047ZM36.7967 36.7497L38.0903 37.509C42.3669 30.223 39.8713 20.5458 30.9908 14.8103L30.177 16.0703L29.3632 17.3303C37.1496 22.3592 38.8203 30.3388 35.5031 35.9904L36.7967 36.7497ZM30.177 16.0703L30.9909 14.8103C26.5078 11.9143 21.8833 11.495 17.8446 10.7617C13.7761 10.023 10.0022 8.96136 6.34037 5.08413L5.24985 6.11406L4.15933 7.144C8.46625 11.7043 12.9892 12.9292 17.3087 13.7135C21.6581 14.5031 25.5129 14.8432 29.3631 17.3303L30.177 16.0703ZM16.2186 23.7188L15.1902 24.8107C23.4439 32.5845 32.0585 37.243 43.3655 38.9826L43.5936 37.5L43.8217 36.0174C33.1913 34.382 25.1183 30.0404 17.2471 22.6268L16.2186 23.7188Z" fill="#080484"/>
</g>
</svg>
