<svg width="48" height="48" viewBox="0 0 48 48" fill="none" xmlns="http://www.w3.org/2000/svg">
<mask id="mask0_1_2278" style="mask-type:luminance" maskUnits="userSpaceOnUse" x="0" y="0" width="48" height="48">
<path fill-rule="evenodd" clip-rule="evenodd" d="M48 0V48H0V0H48Z" fill="white"/>
</mask>
<g mask="url(#mask0_1_2278)">
<path d="M42.9849 4.72676L42.6285 6.18387L42.6414 6.1869L42.9849 4.72676ZM19.7227 14.3052L20.779 15.3702L20.7829 15.3662L19.7227 14.3052ZM18.0919 16.0696L16.9472 15.1003L16.9471 15.1004L18.0919 16.0696ZM16.6205 17.969L16.4853 19.4629L17.346 19.5407L17.8451 18.8352L16.6205 17.969ZM11.0067 18.6721L10.4069 17.2972L10.403 17.299L11.0067 18.6721ZM4.51174 28.5224L3.03168 28.2786L3.03124 28.2813L4.51174 28.5224ZM4.73043 29.2367L3.6387 30.2653L3.63881 30.2654L4.73043 29.2367ZM5.43049 29.4974L5.58328 30.9896L5.59419 30.9884L5.43049 29.4974ZM13.0308 28.663L14.5308 28.6494L14.5157 26.991L12.8671 27.172L13.0308 28.663ZM13.0605 29.5221L11.5632 29.612L11.5632 29.6123L13.0605 29.5221ZM13.1339 30.3786L14.6264 30.2284L14.6256 30.2205L14.6247 30.2126L13.1339 30.3786ZM13.2917 30.9418L11.9382 31.5885L11.9383 31.5886L13.2917 30.9418ZM13.6308 31.4183L14.6915 30.3577L14.6853 30.3516L13.6308 31.4183ZM16.5736 34.3611L17.6404 33.3066L17.6343 33.3005L16.5736 34.3611ZM17.0505 34.7004L16.4041 36.054L16.4043 36.0541L17.0505 34.7004ZM17.6143 34.858L17.7805 33.3672L17.7721 33.3663L17.7636 33.3655L17.6143 34.858ZM18.4656 34.9312L18.375 36.4285L18.3752 36.4285L18.4656 34.9312ZM19.3196 34.9611L20.8106 35.1248L20.9914 33.4774L19.3342 33.4612L19.3196 34.9611ZM18.4861 42.5549L16.995 42.3912L16.9937 42.404L18.4861 42.5549ZM19.4602 43.4727L19.2223 41.9917L19.221 41.9919L19.4602 43.4727ZM29.3105 36.988L30.6849 37.5889L30.6856 37.5872L29.3105 36.988ZM30.023 31.3921L29.159 30.1659L28.4546 30.6622L28.5285 31.5208L30.023 31.3921ZM31.9278 29.9213L30.9601 28.7752L30.9601 28.7752L31.9278 29.9213ZM33.697 28.2899L32.6393 27.2262L32.633 27.2326L33.697 28.2899ZM43.2942 5.04456L41.8255 5.34917L41.8287 5.36464L41.8322 5.38003L43.2942 5.04456ZM27.9986 14.3701L29.0593 15.4307L29.0593 15.4307L27.9986 14.3701ZM33.6601 14.3701L32.5994 15.4307L33.6601 14.3701ZM34.8324 17.2009L36.3324 17.201V17.201L34.8324 17.2009ZM33.6596 20.0316L32.5991 18.9708L32.5978 18.972L33.6596 20.0316ZM27.999 20.0316L29.0608 18.972L29.0595 18.9708L27.999 20.0316ZM43.1859 4.84056L44.2608 3.79435C44.0056 3.53209 43.6848 3.35048 43.3284 3.26662L42.9849 4.72676L42.6414 6.1869C42.441 6.13978 42.2543 6.03403 42.111 5.88677L43.1859 4.84056ZM42.9849 4.72676L43.3412 3.26971C41.7769 2.8871 39.8493 2.96549 37.8355 3.3229C35.7948 3.68508 33.5454 4.35574 31.2799 5.26231C26.7652 7.06892 22.0353 9.87366 18.6624 13.2441L19.7227 14.3052L20.7829 15.3662C23.7972 12.3542 28.1494 9.7463 32.3945 8.04759C34.5088 7.20152 36.5588 6.59636 38.3597 6.27674C40.1874 5.95237 41.6438 5.94298 42.6285 6.18382L42.9849 4.72676ZM19.7227 14.3052L18.6664 13.2402C18.0663 13.8353 17.4933 14.4554 16.9472 15.1003L18.0919 16.0696L19.2366 17.0389C19.7266 16.4603 20.2406 15.9041 20.779 15.3702L19.7227 14.3052ZM18.0919 16.0696L16.9471 15.1004C16.4011 15.7453 15.884 16.4128 15.3959 17.1027L16.6205 17.969L17.8451 18.8352C18.2829 18.2162 18.7468 17.6175 19.2367 17.0388L18.0919 16.0696ZM16.6205 17.969L16.7556 16.4751C14.645 16.2841 12.3974 16.4289 10.4069 17.2972L11.0067 18.6721L11.6065 20.047C12.9686 19.4528 14.6585 19.2976 16.4853 19.4629L16.6205 17.969ZM11.0067 18.6721L10.403 17.299C7.62498 18.5204 5.88001 20.7087 4.7948 22.8159C3.71239 24.9177 3.23765 27.0282 3.03168 28.2786L4.51174 28.5224L5.99179 28.7662C6.17019 27.6831 6.57624 25.9091 7.46189 24.1894C8.34472 22.4752 9.65505 20.905 11.6105 20.0452L11.0067 18.6721ZM4.51174 28.5224L3.03124 28.2813C2.91157 29.0161 3.12822 29.7235 3.6387 30.2653L4.73043 29.2367L5.82216 28.208C5.86648 28.255 5.92881 28.3419 5.96721 28.4674C6.00561 28.5928 6.00262 28.6997 5.99223 28.7635L4.51174 28.5224ZM4.73043 29.2367L3.63881 30.2654C4.14936 30.8072 4.84269 31.0654 5.58328 30.9896L5.43049 29.4974L5.27771 28.0052C5.342 27.9986 5.44889 28.002 5.5718 28.0477C5.69472 28.0935 5.77775 28.1609 5.82206 28.2079L4.73043 29.2367ZM5.43049 29.4974L5.59419 30.9884L13.1945 30.154L13.0308 28.663L12.8671 27.172L5.2668 28.0063L5.43049 29.4974ZM13.0308 28.663L11.5309 28.6766C11.5337 28.9888 11.5445 29.3006 11.5632 29.612L13.0605 29.5221L14.5578 29.4322C14.5422 29.1714 14.5331 28.9104 14.5308 28.6494L13.0308 28.663ZM13.0605 29.5221L11.5632 29.6123C11.582 29.9237 11.6086 30.2345 11.6432 30.5446L13.1339 30.3786L14.6247 30.2126C14.5958 29.953 14.5735 29.6928 14.5578 29.432L13.0605 29.5221ZM13.1339 30.3786L11.6415 30.5288C11.6786 30.8981 11.7783 31.2538 11.9382 31.5885L13.2917 30.9418L14.6451 30.2952C14.6344 30.2727 14.6289 30.2529 14.6264 30.2284L13.1339 30.3786ZM13.2917 30.9418L11.9383 31.5886C12.0983 31.9235 12.3125 32.2243 12.5762 32.4851L13.6308 31.4183L14.6853 30.3516C14.6676 30.3341 14.6557 30.3173 14.6451 30.2951L13.2917 30.9418ZM13.6308 31.4183L12.5701 32.479L15.5129 35.4218L16.5736 34.3611L17.6343 33.3005L14.6914 30.3577L13.6308 31.4183ZM16.5736 34.3611L15.5069 35.4157C15.7679 35.6798 16.0692 35.894 16.4041 36.054L17.0505 34.7004L17.697 33.3469C17.6745 33.3361 17.6577 33.3242 17.6403 33.3066L16.5736 34.3611ZM17.0505 34.7004L16.4043 36.0541C16.7393 36.214 17.0953 36.3136 17.4649 36.3505L17.6143 34.858L17.7636 33.3655C17.739 33.363 17.7192 33.3575 17.6968 33.3468L17.0505 34.7004ZM17.6143 34.858L17.448 36.3488C17.7563 36.3831 18.0653 36.4097 18.375 36.4285L18.4656 34.9312L18.5562 33.4339C18.2971 33.4183 18.0386 33.396 17.7805 33.3672L17.6143 34.858ZM18.4656 34.9312L18.3752 36.4285C18.6848 36.4472 18.9947 36.458 19.3049 36.4611L19.3196 34.9611L19.3342 33.4612C19.0747 33.4587 18.8152 33.4496 18.556 33.4339L18.4656 34.9312ZM19.3196 34.9611L17.8285 34.7975L16.9951 42.3912L18.4861 42.5549L19.9772 42.7185L20.8106 35.1248L19.3196 34.9611ZM18.4861 42.5549L16.9937 42.404C16.919 43.1436 17.1773 43.8358 17.7183 44.3456L18.747 43.2538L19.7756 42.1621C19.8227 42.2064 19.89 42.2893 19.9357 42.412C19.9815 42.5347 19.985 42.6414 19.9785 42.7058L18.4861 42.5549ZM18.747 43.2538L17.7183 44.3456C18.2593 44.8553 18.9656 45.072 19.6994 44.9535L19.4602 43.4727L19.221 41.9919C19.2848 41.9816 19.3915 41.9787 19.5167 42.0171C19.6418 42.0555 19.7286 42.1178 19.7756 42.1621L18.747 43.2538ZM19.4602 43.4727L19.6981 44.9537C20.9523 44.7522 23.0667 44.2797 25.1705 43.1985C27.2796 42.1146 29.4694 40.369 30.6849 37.5889L29.3105 36.988L27.9361 36.3871C27.0825 38.3396 25.5143 39.6488 23.7992 40.5303C22.0786 41.4146 20.3025 41.8182 19.2223 41.9917L19.4602 43.4727ZM29.3105 36.988L30.6856 37.5872C31.553 35.5967 31.6981 33.3615 31.5175 31.2634L30.023 31.3921L28.5285 31.5208C28.6853 33.3414 28.5305 35.0231 27.9354 36.3888L29.3105 36.988ZM30.023 31.3921L30.887 32.6182C31.5791 32.1306 32.2486 31.6136 32.8956 31.0673L31.9278 29.9213L30.9601 28.7752C30.38 29.265 29.7797 29.7285 29.159 30.1659L30.023 31.3921ZM31.9278 29.9213L32.8955 31.0674C33.5424 30.5212 34.1643 29.9478 34.7611 29.3471L33.697 28.2899L32.633 27.2326C32.0979 27.7712 31.5403 28.2853 30.9601 28.7752L31.9278 29.9213ZM33.697 28.2899L34.7547 29.3535C38.1369 25.9901 40.9434 21.3302 42.7514 16.8444C43.6585 14.5941 44.3287 12.3522 44.6914 10.2991C45.0504 8.26726 45.1261 6.321 44.7562 4.70908L43.2942 5.04456L41.8322 5.38003C42.0764 6.44422 42.0609 7.9448 41.7372 9.77716C41.4172 11.5882 40.8134 13.6279 39.9689 15.7229C38.274 19.928 35.6678 24.2146 32.6393 27.2263L33.697 28.2899ZM43.2942 5.04456L44.763 4.73994C44.6887 4.38187 44.516 4.05657 44.2608 3.79436L43.1859 4.84056L42.111 5.88676C41.9676 5.73947 41.8672 5.55016 41.8255 5.34917L43.2942 5.04456ZM26.8262 17.2009L28.3262 17.2008C28.3261 16.4931 28.5589 15.9311 29.0593 15.4307L27.9986 14.3701L26.9379 13.3094C25.8749 14.3725 25.3261 15.6977 25.3262 17.201L26.8262 17.2009ZM27.9986 14.3701L29.0593 15.4307C29.5596 14.9303 30.1217 14.6975 30.8293 14.6975V13.1975V11.6975C29.326 11.6975 28.0009 12.2464 26.9379 13.3094L27.9986 14.3701ZM30.8293 13.1975V14.6975C31.537 14.6975 32.099 14.9303 32.5994 15.4307L33.6601 14.3701L34.7208 13.3094C33.6578 12.2464 32.3327 11.6975 30.8293 11.6975V13.1975ZM33.6601 14.3701L32.5994 15.4307C33.0997 15.9311 33.3325 16.4931 33.3324 17.2008L34.8324 17.2009L36.3324 17.201C36.3326 15.6977 35.7837 14.3725 34.7208 13.3094L33.6601 14.3701ZM34.8324 17.2009L33.3324 17.2008C33.3324 17.9084 33.0995 18.4704 32.5991 18.9708L33.6596 20.0316L34.7202 21.0923C35.7833 20.0294 36.3323 18.7044 36.3324 17.201L34.8324 17.2009ZM33.6596 20.0316L32.5978 18.972C32.0982 19.4728 31.5367 19.7057 30.8293 19.7057V21.2057V22.7057C32.3335 22.7057 33.6589 22.1558 34.7214 21.0911L33.6596 20.0316ZM30.8293 21.2057V19.7057C30.1219 19.7057 29.5605 19.4728 29.0608 18.972L27.999 20.0316L26.9372 21.0911C27.9997 22.1558 29.3252 22.7057 30.8293 22.7057V21.2057ZM27.999 20.0316L29.0595 18.9708C28.5591 18.4704 28.3262 17.9084 28.3262 17.2008L26.8262 17.2009L25.3262 17.201C25.3263 18.7043 25.8753 20.0294 26.9385 21.0923L27.999 20.0316Z" fill="#080484"/>
<path d="M10.2788 33C9.81145 33.0574 9.3662 33.1892 8.94297 33.3954C8.51975 33.6016 8.14157 33.8711 7.80844 34.2038C6.15656 35.8613 6 42 6 42C6 42 12.1425 41.8434 13.7953 40.1897C14.1293 39.8571 14.3996 39.4789 14.6061 39.0552C14.8126 38.6314 14.9439 38.1855 15 37.7175" stroke="#080484" stroke-width="3" stroke-linecap="round" stroke-linejoin="round"/>
</g>
</svg>
