<svg width="40" height="40" viewBox="0 0 40 40" fill="none" xmlns="http://www.w3.org/2000/svg">
<mask id="mask0_1_2442" style="mask-type:luminance" maskUnits="userSpaceOnUse" x="0" y="0" width="40" height="40">
<path fill-rule="evenodd" clip-rule="evenodd" d="M40 0V40H0V0H40Z" fill="white"/>
</mask>
<g mask="url(#mask0_1_2442)">
<path d="M21.25 1.25C22.2719 1.25 23.1788 1.62607 23.9014 2.34863C24.6239 3.0712 25 3.97812 25 5V13.75C24.3233 13.75 23.7109 14.0039 23.2324 14.4824C22.7539 14.9609 22.5 15.5733 22.5 16.25V5C22.5 4.64115 22.3875 4.36992 22.1338 4.11621C21.8801 3.86249 21.6088 3.75 21.25 3.75H6.25C5.89117 3.75 5.61993 3.86249 5.36621 4.11621C5.11249 4.36992 5 4.64115 5 5V36.25H12.5V37.5H15V36.25H22.5V38.75H2.5V5C2.5 3.97812 2.87605 3.0712 3.59863 2.34863C4.32119 1.62607 5.22811 1.25 6.25 1.25H21.25ZM33.75 13.75C34.7719 13.75 35.6788 14.1261 36.4014 14.8486C37.124 15.5712 37.5 16.4782 37.5 17.5V38.75H23.4375C23.8555 38.75 24.2467 38.5872 24.542 38.292H24.543C24.8379 37.9968 25 37.6053 25 37.1875V36.25H35V17.5C35 17.1412 34.8875 16.8699 34.6338 16.6162C34.3801 16.3625 34.1088 16.25 33.75 16.25H25V13.75H33.75ZM15 36.25H12.5V32.5H15V36.25Z" fill="#080484"/>
<path d="M23.9014 2.34863L23.5478 2.70218L23.5478 2.70219L23.9014 2.34863ZM25 5H25.5V5L25 5ZM23.2324 14.4824L22.8789 14.1289L22.8789 14.1289L23.2324 14.4824ZM22.5 5H23V5L22.5 5ZM22.1338 4.11621L21.7802 4.46976L21.7802 4.46977L22.1338 4.11621ZM5.36621 4.11621L5.71976 4.46977L5.71977 4.46976L5.36621 4.11621ZM5 5L4.5 5V5H5ZM5 36.25H4.5V36.75H5V36.25ZM12.5 37.5H12V38H12.5V37.5ZM15 37.5V38H15.5V37.5H15ZM22.5 36.25H23V35.75H22.5V36.25ZM22.5 38.75V39.25H23V38.75H22.5ZM2.5 38.75H2V39.25H2.5V38.75ZM2.5 5L2 5V5H2.5ZM3.59863 2.34863L3.95218 2.70219L3.95219 2.70218L3.59863 2.34863ZM36.4014 14.8486L36.0478 15.2022L36.0478 15.2022L36.4014 14.8486ZM37.5 38.75V39.25H38V38.75H37.5ZM24.542 38.292V37.792H24.3349L24.1885 37.9384L24.542 38.292ZM24.543 38.292V38.792H24.7502L24.8967 38.6454L24.543 38.292ZM25 37.1875L25.5 37.1875V37.1875H25ZM25 36.25V35.75H24.5V36.25H25ZM35 36.25V36.75H35.5V36.25H35ZM34.6338 16.6162L34.2802 16.9698L34.2802 16.9698L34.6338 16.6162ZM25 16.25H24.5V16.75H25V16.25ZM12.5 32.5V32H12V32.5H12.5ZM15 32.5H15.5V32H15V32.5ZM21.25 1.25V1.75C22.1391 1.75 22.9189 2.07329 23.5478 2.70218L23.9014 2.34863L24.2549 1.99508C23.4387 1.17885 22.4046 0.75 21.25 0.75V1.25ZM23.9014 2.34863L23.5478 2.70219C24.1767 3.33108 24.5 4.11087 24.5 5L25 5L25.5 5C25.5 3.84538 25.0712 2.81132 24.2549 1.99508L23.9014 2.34863ZM25 5H24.5V13.75H25H25.5V5H25ZM25 13.75V13.25C24.1906 13.25 23.451 13.5567 22.8789 14.1289L23.2324 14.4824L23.586 14.836C23.9708 14.4511 24.4561 14.25 25 14.25V13.75ZM23.2324 14.4824L22.8789 14.1289C22.3067 14.701 22 15.4405 22 16.25L22.5 16.25L23 16.25C23 15.706 23.2012 15.2208 23.586 14.836L23.2324 14.4824ZM22.5 16.25H23V5H22.5H22V16.25H22.5ZM22.5 5L23 5C23 4.5084 22.8347 4.11003 22.4873 3.76265L22.1338 4.11621L21.7802 4.46977C21.9403 4.62981 22 4.7739 22 5L22.5 5ZM22.1338 4.11621L22.4873 3.76266C22.14 3.41526 21.7416 3.25 21.25 3.25V3.75V4.25C21.4761 4.25 21.6202 4.30971 21.7802 4.46976L22.1338 4.11621ZM21.25 3.75V3.25H6.25V3.75V4.25H21.25V3.75ZM6.25 3.75V3.25C5.75842 3.25 5.36005 3.41526 5.01266 3.76266L5.36621 4.11621L5.71977 4.46976C5.87982 4.30971 6.02392 4.25 6.25 4.25V3.75ZM5.36621 4.11621L5.01266 3.76265C4.66527 4.11003 4.5 4.50839 4.5 5L5 5L5.5 5C5.5 4.7739 5.55971 4.62981 5.71976 4.46977L5.36621 4.11621ZM5 5H4.5V36.25H5H5.5V5H5ZM5 36.25V36.75H12.5V36.25V35.75H5V36.25ZM12.5 36.25H12V37.5H12.5H13V36.25H12.5ZM12.5 37.5V38H15V37.5V37H12.5V37.5ZM15 37.5H15.5V36.25H15H14.5V37.5H15ZM15 36.25V36.75H22.5V36.25V35.75H15V36.25ZM22.5 36.25H22V38.75H22.5H23V36.25H22.5ZM22.5 38.75V38.25H2.5V38.75V39.25H22.5V38.75ZM2.5 38.75H3V5H2.5H2V38.75H2.5ZM2.5 5L3 5C3 4.11087 3.32328 3.33108 3.95218 2.70219L3.59863 2.34863L3.24508 1.99508C2.42882 2.81132 2 3.84538 2 5L2.5 5ZM3.59863 2.34863L3.95219 2.70218C4.58107 2.07329 5.36086 1.75 6.25 1.75V1.25V0.75C5.09537 0.75 4.0613 1.17885 3.24508 1.99508L3.59863 2.34863ZM6.25 1.25V1.75H21.25V1.25V0.75H6.25V1.25ZM33.75 13.75V14.25C34.6391 14.25 35.4189 14.5733 36.0478 15.2022L36.4014 14.8486L36.7549 14.4951C35.9387 13.6788 34.9046 13.25 33.75 13.25V13.75ZM36.4014 14.8486L36.0478 15.2022C36.6767 15.8311 37 16.6109 37 17.5H37.5H38C38 16.3454 37.5712 15.3113 36.7549 14.4951L36.4014 14.8486ZM37.5 17.5H37V38.75H37.5H38V17.5H37.5ZM37.5 38.75V38.25H23.4375V38.75V39.25H37.5V38.75ZM23.4375 38.75V39.25C23.9886 39.25 24.5069 39.0341 24.8955 38.6456L24.542 38.292L24.1885 37.9384C23.9866 38.1403 23.7223 38.25 23.4375 38.25V38.75ZM24.542 38.292V38.792H24.543V38.292V37.792H24.542V38.292ZM24.543 38.292L24.8967 38.6454C25.2853 38.2564 25.5 37.7378 25.5 37.1875L25 37.1875L24.5 37.1875C24.5 37.4729 24.3905 37.7372 24.1892 37.9386L24.543 38.292ZM25 37.1875H25.5V36.25H25H24.5V37.1875H25ZM25 36.25V36.75H35V36.25V35.75H25V36.25ZM35 36.25H35.5V17.5H35H34.5V36.25H35ZM35 17.5H35.5C35.5 17.0084 35.3347 16.61 34.9873 16.2626L34.6338 16.6162L34.2802 16.9698C34.4403 17.1298 34.5 17.2739 34.5 17.5H35ZM34.6338 16.6162L34.9873 16.2627C34.6399 15.9153 34.2416 15.75 33.75 15.75V16.25V16.75C33.9761 16.75 34.1202 16.8097 34.2802 16.9698L34.6338 16.6162ZM33.75 16.25V15.75H25V16.25V16.75H33.75V16.25ZM25 16.25H25.5V13.75H25H24.5V16.25H25ZM25 13.75V14.25H33.75V13.75V13.25H25V13.75ZM15 36.25V35.75H12.5V36.25V36.75H15V36.25ZM12.5 36.25H13V32.5H12.5H12V36.25H12.5ZM12.5 32.5V33H15V32.5V32H12.5V32.5ZM15 32.5H14.5V36.25H15H15.5V32.5H15Z" fill="#080484"/>
<path fill-rule="evenodd" clip-rule="evenodd" d="M6.69666 33.4568C6.41601 33.221 6.26775 32.9201 6.25186 32.5539C6.23598 32.1877 6.35763 31.875 6.61681 31.6158C6.87598 31.3566 7.18867 31.235 7.55486 31.2509C7.92105 31.2668 8.22202 31.415 8.45779 31.6957C8.69355 31.9763 8.78767 32.2984 8.74013 32.6618C8.7034 32.9427 8.58488 33.1833 8.38457 33.3836C8.18427 33.5839 7.94367 33.7024 7.66279 33.7392C7.29935 33.7867 6.97731 33.6926 6.69666 33.4568ZM6.69666 27.2068C6.41601 26.971 6.26775 26.6701 6.25186 26.3039C6.23598 25.9377 6.35763 25.625 6.61681 25.3658C6.87598 25.1066 7.18867 24.985 7.55486 25.0009C7.92105 25.0168 8.22202 25.165 8.45779 25.4457C8.69355 25.7263 8.78767 26.0484 8.74013 26.4118C8.7034 26.6927 8.58488 26.9333 8.38457 27.1336C8.18427 27.3339 7.94367 27.4524 7.66279 27.4892C7.29935 27.5367 6.97731 27.4426 6.69666 27.2068ZM6.69666 20.9568C6.41601 20.721 6.26775 20.4201 6.25186 20.0539C6.23598 19.6877 6.35763 19.375 6.61681 19.1158C6.87598 18.8567 7.18867 18.735 7.55486 18.7509C7.92105 18.7668 8.22202 18.915 8.45779 19.1957C8.69355 19.4763 8.78767 19.7984 8.74013 20.1618C8.7034 20.4427 8.58488 20.6833 8.38457 20.8836C8.18427 21.0839 7.94367 21.2024 7.66279 21.2392C7.29935 21.2867 6.97731 21.1926 6.69666 20.9568ZM6.69666 14.7068C6.41601 14.471 6.26775 14.1701 6.25186 13.8039C6.23598 13.4377 6.35763 13.125 6.61681 12.8658C6.87598 12.6067 7.18867 12.485 7.55486 12.5009C7.92105 12.5168 8.22202 12.665 8.45779 12.9457C8.69355 13.2263 8.78767 13.5484 8.74013 13.9118C8.7034 14.1927 8.58488 14.4333 8.38457 14.6336C8.18427 14.8339 7.94367 14.9524 7.66279 14.9892C7.29935 15.0367 6.97731 14.9426 6.69666 14.7068ZM6.69666 8.45681C6.41601 8.22105 6.26775 7.92007 6.25186 7.55388C6.23598 7.18769 6.35763 6.87501 6.61681 6.61583C6.87599 6.35665 7.18867 6.235 7.55486 6.25089C7.92105 6.26677 8.22203 6.41504 8.45779 6.69569C8.69355 6.97633 8.78767 7.29837 8.74013 7.66181C8.7034 7.9427 8.58488 8.18329 8.38457 8.3836C8.18427 8.5839 7.94367 8.70242 7.66279 8.73916C7.29935 8.78669 6.97731 8.69258 6.69666 8.45681ZM12.9467 27.2068C12.666 26.971 12.5177 26.6701 12.5019 26.3039C12.486 25.9377 12.6076 25.625 12.8668 25.3658C13.126 25.1066 13.4387 24.985 13.8049 25.0009C14.171 25.0168 14.472 25.165 14.7078 25.4457C14.9436 25.7263 15.0377 26.0484 14.9901 26.4118C14.9534 26.6927 14.8349 26.9333 14.6346 27.1336C14.4343 27.3339 14.1937 27.4524 13.9128 27.4892C13.5494 27.5367 13.2273 27.4426 12.9467 27.2068ZM12.9467 20.9568C12.666 20.721 12.5177 20.4201 12.5019 20.0539C12.486 19.6877 12.6076 19.375 12.8668 19.1158C13.126 18.8567 13.4387 18.735 13.8049 18.7509C14.171 18.7668 14.472 18.915 14.7078 19.1957C14.9436 19.4763 15.0377 19.7984 14.9901 20.1618C14.9534 20.4427 14.8349 20.6833 14.6346 20.8836C14.4343 21.0839 14.1937 21.2024 13.9128 21.2392C13.5494 21.2867 13.2273 21.1926 12.9467 20.9568ZM12.9467 14.7068C12.666 14.471 12.5177 14.1701 12.5019 13.8039C12.486 13.4377 12.6076 13.125 12.8668 12.8658C13.126 12.6066 13.4387 12.485 13.8049 12.5009C14.1711 12.5168 14.472 12.665 14.7078 12.9457C14.9436 13.2263 15.0377 13.5484 14.9901 13.9118C14.9534 14.1927 14.8349 14.4333 14.6346 14.6336C14.4343 14.8339 14.1937 14.9524 13.9128 14.9892C13.5494 15.0367 13.2273 14.9426 12.9467 14.7068ZM12.9467 8.45681C12.666 8.22105 12.5177 7.92007 12.5019 7.55388C12.486 7.18769 12.6076 6.87501 12.8668 6.61583C13.126 6.35665 13.4387 6.235 13.8049 6.25089C14.1711 6.26677 14.472 6.41504 14.7078 6.69569C14.9436 6.97633 15.0377 7.29837 14.9901 7.66181C14.9534 7.9427 14.8349 8.18329 14.6346 8.3836C14.4343 8.5839 14.1937 8.70242 13.9128 8.73916C13.5494 8.78669 13.2273 8.69258 12.9467 8.45681ZM19.1967 33.4568C18.916 33.221 18.7677 32.9201 18.7519 32.5539C18.736 32.1877 18.8576 31.875 19.1168 31.6158C19.376 31.3566 19.6887 31.235 20.0549 31.2509C20.421 31.2668 20.722 31.415 20.9578 31.6957C21.1936 31.9763 21.2877 32.2984 21.2401 32.6618C21.2034 32.9427 21.0849 33.1833 20.8846 33.3836C20.6843 33.5839 20.4437 33.7024 20.1628 33.7392C19.7993 33.7867 19.4773 33.6926 19.1967 33.4568ZM19.1967 27.2068C18.916 26.971 18.7677 26.6701 18.7519 26.3039C18.736 25.9377 18.8576 25.625 19.1168 25.3658C19.376 25.1066 19.6887 24.985 20.0549 25.0009C20.421 25.0168 20.722 25.165 20.9578 25.4457C21.1936 25.7263 21.2877 26.0484 21.2401 26.4118C21.2034 26.6927 21.0849 26.9333 20.8846 27.1336C20.6843 27.3339 20.4437 27.4524 20.1628 27.4892C19.7993 27.5367 19.4773 27.4426 19.1967 27.2068ZM19.1967 20.9568C18.916 20.721 18.7677 20.4201 18.7519 20.0539C18.736 19.6877 18.8576 19.375 19.1168 19.1158C19.376 18.8567 19.6887 18.735 20.0549 18.7509C20.421 18.7668 20.722 18.915 20.9578 19.1957C21.1936 19.4763 21.2877 19.7984 21.2401 20.1618C21.2034 20.4427 21.0849 20.6833 20.8846 20.8836C20.6843 21.0839 20.4437 21.2024 20.1628 21.2392C19.7993 21.2867 19.4773 21.1926 19.1967 20.9568Z" fill="#080484"/>
<path fill-rule="evenodd" clip-rule="evenodd" d="M19.1145 12.865C19.6011 12.3783 20.3921 12.3803 20.8812 12.8694C21.3703 13.3585 21.3722 14.1494 20.8856 14.6361C20.399 15.1227 19.608 15.1207 19.1189 14.6316C18.6299 14.1426 18.6279 13.3516 19.1145 12.865Z" fill="#080484"/>
<path fill-rule="evenodd" clip-rule="evenodd" d="M19.1967 8.45681C18.916 8.22105 18.7677 7.92007 18.7519 7.55388C18.736 7.18769 18.8576 6.87501 19.1168 6.61583C19.376 6.35665 19.6887 6.235 20.0549 6.25089C20.421 6.26677 20.722 6.41504 20.9578 6.69568C21.1936 6.97633 21.2877 7.29837 21.2401 7.66181C21.2034 7.9427 21.0849 8.18329 20.8846 8.3836C20.6843 8.5839 20.4437 8.70242 20.1628 8.73916C19.7994 8.78669 19.4773 8.69257 19.1967 8.45681ZM30.366 31.616C30.1219 31.8601 29.9999 32.1547 29.9999 32.4999C29.9999 32.8451 30.1219 33.1397 30.366 33.3838C30.6101 33.6279 30.9047 33.7499 31.2499 33.7499C31.5951 33.7499 31.8897 33.6279 32.1338 33.3838C32.3779 33.1397 32.4999 32.8451 32.4999 32.4999C32.4999 32.1547 32.3779 31.8601 32.1338 31.616C31.8897 31.3719 31.5951 31.2499 31.2499 31.2499C30.9047 31.2499 30.6101 31.3719 30.366 31.616ZM30.366 25.366C30.1219 25.6101 29.9999 25.9047 29.9999 26.2499C29.9999 26.5951 30.1219 26.8897 30.366 27.1338C30.6101 27.3779 30.9047 27.4999 31.2499 27.4999C31.5951 27.4999 31.8897 27.3779 32.1338 27.1338C32.3779 26.8897 32.4999 26.5951 32.4999 26.2499C32.4999 25.9047 32.3779 25.6101 32.1338 25.366C31.8897 25.1219 31.5951 24.9999 31.2499 24.9999C30.9047 24.9999 30.6101 25.1219 30.366 25.366ZM30.366 19.116C30.1219 19.3601 29.9999 19.6547 29.9999 19.9999C29.9999 20.3451 30.1219 20.6397 30.366 20.8838C30.6101 21.1279 30.9047 21.2499 31.2499 21.2499C31.5951 21.2499 31.8897 21.1279 32.1338 20.8838C32.3779 20.6397 32.4999 20.3451 32.4999 19.9999C32.4999 19.6547 32.3779 19.3601 32.1338 19.116C31.8897 18.8719 31.5951 18.7499 31.2499 18.7499C30.9047 18.7499 30.6101 18.8719 30.366 19.116ZM25.366 31.616C25.1219 31.8601 24.9999 32.1547 24.9999 32.4999C24.9999 32.8451 25.1219 33.1397 25.366 33.3838C25.6101 33.6279 25.9047 33.7499 26.2499 33.7499C26.5951 33.7499 26.8897 33.6279 27.1338 33.3838C27.3779 33.1397 27.4999 32.8451 27.4999 32.4999C27.4999 32.1547 27.3779 31.8601 27.1338 31.616C26.8897 31.3719 26.5951 31.2499 26.2499 31.2499C25.9047 31.2499 25.6101 31.3719 25.366 31.616ZM25.366 25.366C25.1219 25.6101 24.9999 25.9047 24.9999 26.2499C24.9999 26.5951 25.1219 26.8897 25.366 27.1338C25.6101 27.3779 25.9047 27.4999 26.2499 27.4999C26.5951 27.4999 26.8897 27.3779 27.1338 27.1338C27.3779 26.8897 27.4999 26.5951 27.4999 26.2499C27.4999 25.9047 27.3779 25.6101 27.1338 25.366C26.8897 25.1219 26.5951 24.9999 26.2499 24.9999C25.9047 24.9999 25.6101 25.1219 25.366 25.366ZM25.366 19.116C25.1219 19.3601 24.9999 19.6547 24.9999 19.9999C24.9999 20.3451 25.1219 20.6397 25.366 20.8838C25.6101 21.1279 25.9047 21.2499 26.2499 21.2499C26.5951 21.2499 26.8897 21.1279 27.1338 20.8838C27.3779 20.6397 27.4999 20.3451 27.4999 19.9999C27.4999 19.6547 27.3779 19.3601 27.1338 19.116C26.8897 18.8719 26.5951 18.7499 26.2499 18.7499C25.9047 18.7499 25.6101 18.8719 25.366 19.116Z" fill="#080484"/>
</g>
</svg>
