<svg width="40" height="40" viewBox="0 0 40 40" fill="none" xmlns="http://www.w3.org/2000/svg">
<mask id="mask0_1_2499" style="mask-type:luminance" maskUnits="userSpaceOnUse" x="0" y="0" width="40" height="40">
<path fill-rule="evenodd" clip-rule="evenodd" d="M40 0V40H0V0H40Z" fill="white"/>
</mask>
<g mask="url(#mask0_1_2499)">
<path fill-rule="evenodd" clip-rule="evenodd" d="M20 5L37.5 15L20 25L2.5 15L20 5V5Z" stroke="#080484" stroke-width="2.5" stroke-linecap="round" stroke-linejoin="round"/>
<path d="M10 28.0137L18.75 32.874V35H21.25V32.874L30 28.0137V18.75H32.5V29.4854L31.8574 29.8428L20.6074 36.0928L20 36.4297L19.3926 36.0928L8.14258 29.8428L7.5 29.4854V18.75H10V28.0137ZM21.25 32.874L20 33.5693L18.75 32.874V25H21.25V32.874ZM38.75 28.75H36.25V15H38.75V28.75Z" fill="#080484"/>
<path d="M10 28.0137H9.5V28.3079L9.75721 28.4508L10 28.0137ZM18.75 35H18.25V35.5H18.75V35ZM21.25 35V35.5H21.75V35H21.25ZM30 28.0137L30.2428 28.4508L30.5 28.3079V28.0137H30ZM30 18.75V18.25H29.5V18.75H30ZM32.5 18.75H33V18.25H32.5V18.75ZM32.5 29.4854L32.743 29.9223L33 29.7794V29.4854H32.5ZM31.8574 29.8428L32.1002 30.2799L32.1005 30.2797L31.8574 29.8428ZM20.6074 36.0928L20.8499 36.53L20.8502 36.5299L20.6074 36.0928ZM20 36.4297L19.7575 36.8669L20 37.0014L20.2425 36.8669L20 36.4297ZM19.3926 36.0928L19.1498 36.5299L19.1501 36.53L19.3926 36.0928ZM8.14258 29.8428L7.89953 30.2797L7.89976 30.2799L8.14258 29.8428ZM7.5 29.4854H7V29.7794L7.25695 29.9223L7.5 29.4854ZM7.5 18.75V18.25H7V18.75H7.5ZM10 18.75H10.5V18.25H10V18.75ZM20 33.5693L19.7569 34.0063L20 34.1415L20.2431 34.0063L20 33.5693ZM18.75 25V24.5H18.25V25H18.75ZM21.25 25H21.75V24.5H21.25V25ZM38.75 28.75V29.25H39.25V28.75H38.75ZM36.25 28.75H35.75V29.25H36.25V28.75ZM36.25 15V14.5H35.75V15H36.25ZM38.75 15H39.25V14.5H38.75V15ZM10 28.0137L9.75721 28.4508L18.5072 33.3111L18.75 32.874L18.9928 32.4369L10.2428 27.5766L10 28.0137ZM18.75 32.874H18.25V35H18.75H19.25V32.874H18.75ZM18.75 35V35.5H21.25V35V34.5H18.75V35ZM21.25 35H21.75V32.874H21.25H20.75V35H21.25ZM21.25 32.874L21.4928 33.3111L30.2428 28.4508L30 28.0137L29.7572 27.5766L21.0072 32.4369L21.25 32.874ZM30 28.0137H30.5V18.75H30H29.5V28.0137H30ZM30 18.75V19.25H32.5V18.75V18.25H30V18.75ZM32.5 18.75H32V29.4854H32.5H33V18.75H32.5ZM32.5 29.4854L32.257 29.0484L31.6144 29.4058L31.8574 29.8428L32.1005 30.2797L32.743 29.9223L32.5 29.4854ZM31.8574 29.8428L31.6146 29.4057L20.3646 35.6557L20.6074 36.0928L20.8502 36.5299L32.1002 30.2799L31.8574 29.8428ZM20.6074 36.0928L20.3649 35.6555L19.7575 35.9924L20 36.4297L20.2425 36.8669L20.8499 36.53L20.6074 36.0928ZM20 36.4297L20.2425 35.9924L19.6351 35.6555L19.3926 36.0928L19.1501 36.53L19.7575 36.8669L20 36.4297ZM19.3926 36.0928L19.6354 35.6557L8.3854 29.4057L8.14258 29.8428L7.89976 30.2799L19.1498 36.5299L19.3926 36.0928ZM8.14258 29.8428L8.38563 29.4058L7.74305 29.0484L7.5 29.4854L7.25695 29.9223L7.89953 30.2797L8.14258 29.8428ZM7.5 29.4854H8V18.75H7.5H7V29.4854H7.5ZM7.5 18.75V19.25H10V18.75V18.25H7.5V18.75ZM10 18.75H9.5V28.0137H10H10.5V18.75H10ZM21.25 32.874L21.0069 32.4371L19.7569 33.1324L20 33.5693L20.2431 34.0063L21.4931 33.311L21.25 32.874ZM20 33.5693L20.2431 33.1324L18.9931 32.4371L18.75 32.874L18.5069 33.311L19.7569 34.0063L20 33.5693ZM18.75 32.874H19.25V25H18.75H18.25V32.874H18.75ZM18.75 25V25.5H21.25V25V24.5H18.75V25ZM21.25 25H20.75V32.874H21.25H21.75V25H21.25ZM38.75 28.75V28.25H36.25V28.75V29.25H38.75V28.75ZM36.25 28.75H36.75V15H36.25H35.75V28.75H36.25ZM36.25 15V15.5H38.75V15V14.5H36.25V15ZM38.75 15H38.25V28.75H38.75H39.25V15H38.75Z" fill="#080484"/>
</g>
</svg>
