<svg width="20" height="20" viewBox="0 0 20 20" fill="none" xmlns="http://www.w3.org/2000/svg">
<mask id="mask0_1_1732" style="mask-type:luminance" maskUnits="userSpaceOnUse" x="0" y="0" width="20" height="20">
<path fill-rule="evenodd" clip-rule="evenodd" d="M20 0V20H0V0H20Z" fill="white"/>
</mask>
<g mask="url(#mask0_1_1732)">
<path fill-rule="evenodd" clip-rule="evenodd" d="M10.625 6.25V12.241L12.6832 10.1832C12.8061 10.0665 12.9522 10.0092 13.1217 10.0114C13.2911 10.0135 13.4358 10.0745 13.5556 10.1944C13.6755 10.3142 13.7365 10.4589 13.7386 10.6283C13.7408 10.7978 13.6835 10.9439 13.5668 11.0668L10.4418 14.1918C10.3198 14.3137 10.1725 14.3747 10 14.3747C9.82749 14.3747 9.68023 14.3137 9.5582 14.1918L6.43321 11.0668C6.31647 10.9439 6.2592 10.7978 6.26137 10.6283C6.26353 10.4589 6.32454 10.3142 6.44437 10.1944C6.56421 10.0745 6.70885 10.0135 6.87831 10.0114C7.04778 10.0092 7.19393 10.0665 7.3168 10.1832L9.37499 12.241V6.25H5.3125C4.70871 6.25065 4.19333 6.46444 3.7664 6.89139C3.33944 7.31834 3.12565 7.83371 3.125 8.4375V16.5625C3.12565 17.1663 3.33945 17.6817 3.76638 18.1086C4.19333 18.5356 4.70871 18.7493 5.3125 18.75H14.6875C15.2913 18.7493 15.8067 18.5356 16.2336 18.1086C16.6606 17.6817 16.8744 17.1663 16.875 16.5625V8.4375C16.8744 7.8337 16.6606 7.31834 16.2336 6.89139C15.8067 6.46444 15.2913 6.25065 14.6875 6.25H10.625ZM10.4419 1.43306C10.3199 1.31102 10.1726 1.25 10 1.25C9.82741 1.25 9.6801 1.31102 9.55806 1.43306C9.43602 1.5551 9.375 1.70241 9.375 1.875V6.25H10.625V1.875C10.625 1.70241 10.564 1.5551 10.4419 1.43306Z" fill="white"/>
</g>
</svg>
