<svg width="48" height="48" viewBox="0 0 48 48" fill="none" xmlns="http://www.w3.org/2000/svg">
<mask id="mask0_1_2222" style="mask-type:luminance" maskUnits="userSpaceOnUse" x="0" y="0" width="48" height="48">
<path fill-rule="evenodd" clip-rule="evenodd" d="M48 0V48H0V0H48Z" fill="white"/>
</mask>
<g mask="url(#mask0_1_2222)">
<mask id="mask1_1_2222" style="mask-type:luminance" maskUnits="userSpaceOnUse" x="5" y="7" width="32" height="34">
<path fill-rule="evenodd" clip-rule="evenodd" d="M37 7V40.6661H5V7H37Z" fill="white"/>
</mask>
<g mask="url(#mask1_1_2222)">
<path fill-rule="evenodd" clip-rule="evenodd" d="M29 25.3191C27.5562 23.8002 25.4 23.5043 23.6625 24.4051L17 17.3957V13.3124L9 7L5 11.2083L11 19.6248H14.8813L21.5438 26.6342C20.6938 28.4622 20.9687 30.7307 22.4125 32.2496L29.7313 39.9494C30.6438 40.9094 32.1187 40.9094 33.025 39.9494L36.3188 36.4842C37.225 35.5241 37.225 33.9724 36.3188 33.0189L29 25.3191ZM30.4129 23.8332L31.6254 25.1088C32.6129 24.6551 33.5504 24.0239 34.3629 23.1691C36.6816 20.7296 37.4691 17.2972 36.7316 14.1805C36.5941 13.5887 35.8879 13.3849 35.4754 13.8188L30.8254 18.711L26.5816 17.9679L25.8754 13.5032L30.5254 8.6111C30.9379 8.17713 30.7379 7.43411 30.1691 7.28287C27.2066 6.51354 23.9441 7.34206 21.6316 9.77496C19.8504 11.6489 19.0129 14.1213 19.0566 16.5871L24.1879 21.9855C24.6941 21.8606 25.2191 21.7948 25.7316 21.7948C27.5004 21.7948 29.1629 22.5181 30.4129 23.8332ZM15.6939 23.4583L6.16895 33.4858C4.60644 35.1297 4.60644 37.7927 6.16895 39.4366C7.73145 41.0804 10.2627 41.0804 11.8252 39.4366L19.5502 31.3094C19.0752 30.0009 18.9314 28.574 19.2377 27.1866L15.6939 23.4583ZM7.5 36.4579C7.5 35.5833 8.16875 34.8798 9 34.8798C9.83125 34.8798 10.5 35.5833 10.5 36.4579C10.5 37.3258 9.83125 38.036 9 38.036C8.175 38.036 7.5 37.3258 7.5 36.4579Z" fill="#080484"/>
</g>
</g>
</svg>
