<svg width="48" height="48" viewBox="0 0 48 48" fill="none" xmlns="http://www.w3.org/2000/svg">
<mask id="mask0_1_2237" style="mask-type:luminance" maskUnits="userSpaceOnUse" x="0" y="0" width="48" height="48">
<path fill-rule="evenodd" clip-rule="evenodd" d="M48 0V48H0V0H48Z" fill="white"/>
</mask>
<g mask="url(#mask0_1_2237)">
<path fill-rule="evenodd" clip-rule="evenodd" d="M33.9938 30.6844C35.0556 29.2708 35.8659 27.7253 36.4247 26.048C36.9835 24.3706 37.2619 22.648 37.26 20.88C37.26 11.8481 29.9119 4.5 20.88 4.5C11.8481 4.5 4.5 11.8481 4.5 20.88C4.5 29.9119 11.8481 37.26 20.88 37.26C22.648 37.262 24.3706 36.9835 26.048 36.4247C27.7253 35.8659 29.2708 35.0556 30.6844 33.9937L39.5053 42.8147C39.9688 43.229 40.5114 43.4275 41.1329 43.4101C41.7544 43.3927 42.2849 43.1642 42.7246 42.7246C43.1642 42.2849 43.3927 41.7544 43.4101 41.1329C43.4275 40.5114 43.229 39.9688 42.8147 39.5053L33.9938 30.6844ZM12.6065 12.6065C14.8911 10.322 17.6488 9.17969 20.8797 9.17969C24.1105 9.17969 26.8683 10.322 29.1528 12.6065C31.4374 14.8911 32.5797 17.6488 32.5797 20.8797C32.5797 24.1105 31.4374 26.8683 29.1528 29.1528C26.8683 31.4374 24.1105 32.5797 20.8797 32.5797C17.6504 32.5758 14.8941 31.4322 12.6106 29.1487C10.3272 26.8653 9.18357 24.109 9.17969 20.8797C9.17969 17.6488 10.322 14.8911 12.6065 12.6065Z" fill="#080484"/>
</g>
</svg>
